<?xml version="1.0" encoding="UTF-8" standalone="no"?>
<!DOCTYPE svg PUBLIC "-//W3C//DTD SVG 1.1//EN"
 "http://www.w3.org/Graphics/SVG/1.1/DTD/svg11.dtd">
<!-- Generated by graphviz version 2.40.1 (20161225.0304)
 -->
<!-- Title: G Pages: 1 -->
<svg width="400pt" height="1130pt"
 viewBox="0.00 0.00 400.00 1130.00" xmlns="http://www.w3.org/2000/svg" xmlns:xlink="http://www.w3.org/1999/xlink">
<g id="graph0" class="graph" transform="scale(1 1) rotate(0) translate(4 1126)">
<title>G</title>
<polygon fill="#ffffff" stroke="transparent" points="-4,4 -4,-1126 396,-1126 396,4 -4,4"/>
<g id="clust1" class="cluster">
<title>cluster_Global</title>
<path fill="none" stroke="#c0c0c0" d="M20,-8C20,-8 372,-8 372,-8 378,-8 384,-14 384,-20 384,-20 384,-1102 384,-1102 384,-1108 378,-1114 372,-1114 372,-1114 20,-1114 20,-1114 14,-1114 8,-1108 8,-1102 8,-1102 8,-20 8,-20 8,-14 14,-8 20,-8"/>
<text text-anchor="middle" x="196" y="-1101.2" font-family="Times,serif" font-size="11.00" fill="#c0c0c0">Global</text>
</g>
<g id="clust2" class="cluster">
<title>cluster_\PrivateBin</title>
<path fill="none" stroke="#c0c0c0" d="M28,-16C28,-16 364,-16 364,-16 370,-16 376,-22 376,-28 376,-28 376,-1074 376,-1074 376,-1080 370,-1086 364,-1086 364,-1086 28,-1086 28,-1086 22,-1086 16,-1080 16,-1074 16,-1074 16,-28 16,-28 16,-22 22,-16 28,-16"/>
<text text-anchor="middle" x="196" y="-1073.2" font-family="Times,serif" font-size="11.00" fill="#c0c0c0">PrivateBin</text>
</g>
<g id="clust3" class="cluster">
<title>cluster_\PrivateBin\Data</title>
<path fill="none" stroke="#c0c0c0" d="M59.5,-932C59.5,-932 342.5,-932 342.5,-932 348.5,-932 354.5,-938 354.5,-944 354.5,-944 354.5,-1046 354.5,-1046 354.5,-1052 348.5,-1058 342.5,-1058 342.5,-1058 59.5,-1058 59.5,-1058 53.5,-1058 47.5,-1052 47.5,-1046 47.5,-1046 47.5,-944 47.5,-944 47.5,-938 53.5,-932 59.5,-932"/>
<text text-anchor="middle" x="201" y="-1045.2" font-family="Times,serif" font-size="11.00" fill="#c0c0c0">Data</text>
</g>
<g id="clust4" class="cluster">
<title>cluster_\PrivateBin\Persistence</title>
<path fill="none" stroke="#c0c0c0" d="M36,-690C36,-690 356,-690 356,-690 362,-690 368,-696 368,-702 368,-702 368,-912 368,-912 368,-918 362,-924 356,-924 356,-924 36,-924 36,-924 30,-924 24,-918 24,-912 24,-912 24,-702 24,-702 24,-696 30,-690 36,-690"/>
<text text-anchor="middle" x="196" y="-911.2" font-family="Times,serif" font-size="11.00" fill="#c0c0c0">Persistence</text>
</g>
<g id="clust5" class="cluster">
<title>cluster_\PrivateBin\Model</title>
<path fill="none" stroke="#c0c0c0" d="M56.5,-556C56.5,-556 332.5,-556 332.5,-556 338.5,-556 344.5,-562 344.5,-568 344.5,-568 344.5,-670 344.5,-670 344.5,-676 338.5,-682 332.5,-682 332.5,-682 56.5,-682 56.5,-682 50.5,-682 44.5,-676 44.5,-670 44.5,-670 44.5,-568 44.5,-568 44.5,-562 50.5,-556 56.5,-556"/>
<text text-anchor="middle" x="194.5" y="-669.2" font-family="Times,serif" font-size="11.00" fill="#c0c0c0">Model</text>
</g>
<!-- \\PrivateBin\\Data\\Filesystem -->
<g id="node1" class="node">
<title>\\PrivateBin\\Data\\Filesystem</title>
<polygon fill="none" stroke="#000000" points="346.5,-1030 262.5,-1030 262.5,-994 346.5,-994 346.5,-1030"/>
<text text-anchor="middle" x="304.5" y="-1009.2" font-family="Courier,monospace" font-size="11.00" fill="#000000">Filesystem</text>
</g>
<!-- \\PrivateBin\\Data\\AbstractData -->
<g id="node3" class="node">
<title>\\PrivateBin\\Data\\AbstractData</title>
<polygon fill="none" stroke="#000000" points="153.5,-1003 55.5,-1003 55.5,-967 153.5,-967 153.5,-1003"/>
<text text-anchor="start" x="70.5" y="-988.2" font-family="Courier,monospace" font-size="11.00" fill="#000000">«abstract»</text>
<text text-anchor="start" x="63.5" y="-976.2" font-family="Courier,monospace" font-size="11.00" fill="#000000">AbstractData</text>
</g>
<!-- \\PrivateBin\\Data\\Filesystem&#45;&gt;\\PrivateBin\\Data\\AbstractData -->
<g id="edge1" class="edge">
<title>\\PrivateBin\\Data\\Filesystem&#45;&gt;\\PrivateBin\\Data\\AbstractData</title>
<path fill="none" stroke="#000000" d="M262.0851,-1006.274C233.4249,-1002.4049 195.1915,-997.2434 163.5622,-992.9734"/>
<polygon fill="none" stroke="#000000" points="163.9239,-989.4906 153.5455,-991.6211 162.9873,-996.4276 163.9239,-989.4906"/>
</g>
<!-- \\PrivateBin\\Data\\Database -->
<g id="node2" class="node">
<title>\\PrivateBin\\Data\\Database</title>
<polygon fill="none" stroke="#000000" points="340,-976 269,-976 269,-940 340,-940 340,-976"/>
<text text-anchor="middle" x="304.5" y="-955.2" font-family="Courier,monospace" font-size="11.00" fill="#000000">Database</text>
</g>
<!-- \\PrivateBin\\Data\\Database&#45;&gt;\\PrivateBin\\Data\\AbstractData -->
<g id="edge2" class="edge">
<title>\\PrivateBin\\Data\\Database&#45;&gt;\\PrivateBin\\Data\\AbstractData</title>
<path fill="none" stroke="#000000" d="M268.744,-962.8271C239.7241,-966.7447 198.1867,-972.3523 164.1456,-976.9478"/>
<polygon fill="none" stroke="#000000" points="163.2858,-973.5321 153.844,-978.3386 164.2223,-980.4692 163.2858,-973.5321"/>
</g>
<!-- \\PrivateBin\\Persistence\\TrafficLimiter -->
<g id="node4" class="node">
<title>\\PrivateBin\\Persistence\\TrafficLimiter</title>
<polygon fill="none" stroke="#000000" points="360,-896 249,-896 249,-860 360,-860 360,-896"/>
<text text-anchor="middle" x="304.5" y="-875.2" font-family="Courier,monospace" font-size="11.00" fill="#000000">TrafficLimiter</text>
</g>
<!-- \\PrivateBin\\Persistence\\AbstractPersistence -->
<g id="node6" class="node">
<title>\\PrivateBin\\Persistence\\AbstractPersistence</title>
<polygon fill="none" stroke="#000000" points="177,-815 32,-815 32,-779 177,-779 177,-815"/>
<text text-anchor="start" x="70.5" y="-800.2" font-family="Courier,monospace" font-size="11.00" fill="#000000">«abstract»</text>
<text text-anchor="start" x="40" y="-788.2" font-family="Courier,monospace" font-size="11.00" fill="#000000">AbstractPersistence</text>
</g>
<!-- \\PrivateBin\\Persistence\\TrafficLimiter&#45;&gt;\\PrivateBin\\Persistence\\AbstractPersistence -->
<g id="edge3" class="edge">
<title>\\PrivateBin\\Persistence\\TrafficLimiter&#45;&gt;\\PrivateBin\\Persistence\\AbstractPersistence</title>
<path fill="none" stroke="#000000" d="M259.6161,-859.822C229.7657,-847.7326 190.3866,-831.7841 158.7758,-818.9817"/>
<polygon fill="none" stroke="#000000" points="159.8167,-815.6271 149.2341,-815.1173 157.1889,-822.1152 159.8167,-815.6271"/>
</g>
<!-- \\PrivateBin\\Persistence\\DataStore -->
<g id="node5" class="node">
<title>\\PrivateBin\\Persistence\\DataStore</title>
<polygon fill="none" stroke="#000000" points="343,-842 266,-842 266,-806 343,-806 343,-842"/>
<text text-anchor="middle" x="304.5" y="-821.2" font-family="Courier,monospace" font-size="11.00" fill="#000000">DataStore</text>
</g>
<!-- \\PrivateBin\\Persistence\\DataStore&#45;&gt;\\PrivateBin\\Persistence\\AbstractPersistence -->
<g id="edge4" class="edge">
<title>\\PrivateBin\\Persistence\\DataStore&#45;&gt;\\PrivateBin\\Persistence\\AbstractPersistence</title>
<path fill="none" stroke="#000000" d="M265.938,-818.7941C243.5958,-815.7779 214.5733,-811.8599 187.3086,-808.1792"/>
<polygon fill="none" stroke="#000000" points="187.7372,-804.7054 177.3588,-806.8359 186.8007,-811.6424 187.7372,-804.7054"/>
</g>
<!-- \\PrivateBin\\Persistence\\PurgeLimiter -->
<g id="node7" class="node">
<title>\\PrivateBin\\Persistence\\PurgeLimiter</title>
<polygon fill="none" stroke="#000000" points="353.5,-788 255.5,-788 255.5,-752 353.5,-752 353.5,-788"/>
<text text-anchor="middle" x="304.5" y="-767.2" font-family="Courier,monospace" font-size="11.00" fill="#000000">PurgeLimiter</text>
</g>
<!-- \\PrivateBin\\Persistence\\PurgeLimiter&#45;&gt;\\PrivateBin\\Persistence\\AbstractPersistence -->
<g id="edge5" class="edge">
<title>\\PrivateBin\\Persistence\\PurgeLimiter&#45;&gt;\\PrivateBin\\Persistence\\AbstractPersistence</title>
<path fill="none" stroke="#000000" d="M255.3183,-776.6395C234.8659,-779.4006 210.5508,-782.6831 187.4808,-785.7976"/>
<polygon fill="none" stroke="#000000" points="186.7791,-782.3605 177.3373,-787.167 187.7156,-789.2976 186.7791,-782.3605"/>
</g>
<!-- \\PrivateBin\\Persistence\\ServerSalt -->
<g id="node8" class="node">
<title>\\PrivateBin\\Persistence\\ServerSalt</title>
<polygon fill="none" stroke="#000000" points="346.5,-734 262.5,-734 262.5,-698 346.5,-698 346.5,-734"/>
<text text-anchor="middle" x="304.5" y="-713.2" font-family="Courier,monospace" font-size="11.00" fill="#000000">ServerSalt</text>
</g>
<!-- \\PrivateBin\\Persistence\\ServerSalt&#45;&gt;\\PrivateBin\\Persistence\\AbstractPersistence -->
<g id="edge6" class="edge">
<title>\\PrivateBin\\Persistence\\ServerSalt&#45;&gt;\\PrivateBin\\Persistence\\AbstractPersistence</title>
<path fill="none" stroke="#000000" d="M262.0851,-733.178C231.9244,-745.3931 191.1619,-761.9019 158.651,-775.0688"/>
<polygon fill="none" stroke="#000000" points="157.2376,-771.8651 149.2827,-778.863 159.8653,-778.3532 157.2376,-771.8651"/>
</g>
<!-- \\PrivateBin\\Model\\Comment -->
<g id="node9" class="node">
<title>\\PrivateBin\\Model\\Comment</title>
<polygon fill="none" stroke="#000000" points="336.5,-654 272.5,-654 272.5,-618 336.5,-618 336.5,-654"/>
<text text-anchor="middle" x="304.5" y="-633.2" font-family="Courier,monospace" font-size="11.00" fill="#000000">Comment</text>
</g>
<!-- \\PrivateBin\\Model\\AbstractModel -->
<g id="node10" class="node">
<title>\\PrivateBin\\Model\\AbstractModel</title>
<polygon fill="none" stroke="#000000" points="156.5,-627 52.5,-627 52.5,-591 156.5,-591 156.5,-627"/>
<text text-anchor="start" x="70.5" y="-612.2" font-family="Courier,monospace" font-size="11.00" fill="#000000">«abstract»</text>
<text text-anchor="start" x="60.5" y="-600.2" font-family="Courier,monospace" font-size="11.00" fill="#000000">AbstractModel</text>
</g>
<!-- \\PrivateBin\\Model\\Comment&#45;&gt;\\PrivateBin\\Model\\AbstractModel -->
<g id="edge7" class="edge">
<title>\\PrivateBin\\Model\\Comment&#45;&gt;\\PrivateBin\\Model\\AbstractModel</title>
<path fill="none" stroke="#000000" d="M272.3665,-631.662C244.0255,-627.8359 201.9144,-622.1509 166.9611,-617.4322"/>
<polygon fill="none" stroke="#000000" points="167.2178,-613.9352 156.8394,-616.0658 166.2813,-620.8723 167.2178,-613.9352"/>
</g>
<!-- \\PrivateBin\\Model\\Paste -->
<g id="node11" class="node">
<title>\\PrivateBin\\Model\\Paste</title>
<polygon fill="none" stroke="#000000" points="331.5,-600 277.5,-600 277.5,-564 331.5,-564 331.5,-600"/>
<text text-anchor="middle" x="304.5" y="-579.2" font-family="Courier,monospace" font-size="11.00" fill="#000000">Paste</text>
</g>
<!-- \\PrivateBin\\Model\\Paste&#45;&gt;\\PrivateBin\\Model\\AbstractModel -->
<g id="edge8" class="edge">
<title>\\PrivateBin\\Model\\Paste&#45;&gt;\\PrivateBin\\Model\\AbstractModel</title>
<path fill="none" stroke="#000000" d="M277.1102,-585.6976C248.8493,-589.5128 203.8018,-595.5943 166.8127,-600.5878"/>
<polygon fill="none" stroke="#000000" points="166.056,-597.1581 156.6142,-601.9646 166.9925,-604.0952 166.056,-597.1581"/>
</g>
<!-- \\PrivateBin\\Filter -->
<g id="node12" class="node">
<title>\\PrivateBin\\Filter</title>
<polygon fill="none" stroke="#000000" points="333,-546 276,-546 276,-510 333,-510 333,-546"/>
<text text-anchor="middle" x="304.5" y="-525.2" font-family="Courier,monospace" font-size="11.00" fill="#000000">Filter</text>
</g>
<!-- \\PrivateBin\\Model -->
<g id="node13" class="node">
<title>\\PrivateBin\\Model</title>
<polygon fill="none" stroke="#000000" points="331.5,-492 277.5,-492 277.5,-456 331.5,-456 331.5,-492"/>
<text text-anchor="middle" x="304.5" y="-471.2" font-family="Courier,monospace" font-size="11.00" fill="#000000">Model</text>
</g>
<!-- \\PrivateBin\\Controller -->
<g id="node14" class="node">
<title>\\PrivateBin\\Controller</title>
<polygon fill="none" stroke="#000000" points="346.5,-438 262.5,-438 262.5,-402 346.5,-402 346.5,-438"/>
<text text-anchor="middle" x="304.5" y="-417.2" font-family="Courier,monospace" font-size="11.00" fill="#000000">Controller</text>
</g>
<!-- \\PrivateBin\\View -->
<g id="node15" class="node">
<title>\\PrivateBin\\View</title>
<polygon fill="none" stroke="#000000" points="331.5,-384 277.5,-384 277.5,-348 331.5,-348 331.5,-384"/>
<text text-anchor="middle" x="304.5" y="-363.2" font-family="Courier,monospace" font-size="11.00" fill="#000000">View</text>
</g>
<!-- \\PrivateBin\\Request -->
<g id="node16" class="node">
<title>\\PrivateBin\\Request</title>
<polygon fill="none" stroke="#000000" points="336.5,-330 272.5,-330 272.5,-294 336.5,-294 336.5,-330"/>
<text text-anchor="middle" x="304.5" y="-309.2" font-family="Courier,monospace" font-size="11.00" fill="#000000">Request</text>
</g>
<!-- \\PrivateBin\\I18n -->
<g id="node17" class="node">
<title>\\PrivateBin\\I18n</title>
<polygon fill="none" stroke="#000000" points="331.5,-276 277.5,-276 277.5,-240 331.5,-240 331.5,-276"/>
<text text-anchor="middle" x="304.5" y="-255.2" font-family="Courier,monospace" font-size="11.00" fill="#000000">I18n</text>
</g>
<!-- \\PrivateBin\\Configuration -->
<g id="node18" class="node">
<title>\\PrivateBin\\Configuration</title>
<polygon fill="none" stroke="#000000" points="356.5,-222 252.5,-222 252.5,-186 356.5,-186 356.5,-222"/>
<text text-anchor="middle" x="304.5" y="-201.2" font-family="Courier,monospace" font-size="11.00" fill="#000000">Configuration</text>
</g>
<!-- \\PrivateBin\\FormatV2 -->
<g id="node19" class="node">
<title>\\PrivateBin\\FormatV2</title>
<polygon fill="none" stroke="#000000" points="340,-168 269,-168 269,-132 340,-132 340,-168"/>
<text text-anchor="middle" x="304.5" y="-147.2" font-family="Courier,monospace" font-size="11.00" fill="#000000">FormatV2</text>
</g>
<!-- \\PrivateBin\\Json -->
<g id="node20" class="node">
<title>\\PrivateBin\\Json</title>
<polygon fill="none" stroke="#000000" points="331.5,-114 277.5,-114 277.5,-78 331.5,-78 331.5,-114"/>
<text text-anchor="middle" x="304.5" y="-93.2" font-family="Courier,monospace" font-size="11.00" fill="#000000">Json</text>
</g>
<!-- \\PrivateBin\\Vizhash16x16 -->
<g id="node21" class="node">
<title>\\PrivateBin\\Vizhash16x16</title>
<polygon fill="none" stroke="#000000" points="353.5,-60 255.5,-60 255.5,-24 353.5,-24 353.5,-60"/>
<text text-anchor="middle" x="304.5" y="-39.2" font-family="Courier,monospace" font-size="11.00" fill="#000000">Vizhash16x16</text>
</g>
</g>
</svg>
