<?xml version="1.0" encoding="UTF-8" standalone="no"?>
<!DOCTYPE svg PUBLIC "-//W3C//DTD SVG 1.1//EN"
 "http://www.w3.org/Graphics/SVG/1.1/DTD/svg11.dtd">
<!-- Generated by graphviz version 2.40.1 (20161225.0304)
 -->
<!-- Title: G Pages: 1 -->
<svg width="400pt" height="1130pt"
 viewBox="0.00 0.00 400.00 1130.00" xmlns="http://www.w3.org/2000/svg" xmlns:xlink="http://www.w3.org/1999/xlink">
<g id="graph0" class="graph" transform="scale(1 1) rotate(0) translate(4 1126)">
<title>G</title>
<polygon fill="#ffffff" stroke="transparent" points="-4,4 -4,-1126 396,-1126 396,4 -4,4"/>
<g id="clust1" class="cluster">
<title>cluster_Global</title>
<path fill="none" stroke="#c0c0c0" d="M20,-8C20,-8 372,-8 372,-8 378,-8 384,-14 384,-20 384,-20 384,-1102 384,-1102 384,-1108 378,-1114 372,-1114 372,-1114 20,-1114 20,-1114 14,-1114 8,-1108 8,-1102 8,-1102 8,-20 8,-20 8,-14 14,-8 20,-8"/>
<text text-anchor="middle" x="196" y="-1101.2" font-family="Times,serif" font-size="11.00" fill="#c0c0c0">Global</text>
</g>
<g id="clust2" class="cluster">
<title>cluster_\PrivateBin</title>
<path fill="none" stroke="#c0c0c0" d="M28,-16C28,-16 364,-16 364,-16 370,-16 376,-22 376,-28 376,-28 376,-1074 376,-1074 376,-1080 370,-1086 364,-1086 364,-1086 28,-1086 28,-1086 22,-1086 16,-1080 16,-1074 16,-1074 16,-28 16,-28 16,-22 22,-16 28,-16"/>
<text text-anchor="middle" x="196" y="-1073.2" font-family="Times,serif" font-size="11.00" fill="#c0c0c0">PrivateBin</text>
</g>
<g id="clust3" class="cluster">
<title>cluster_\PrivateBin\Persistence</title>
<path fill="none" stroke="#c0c0c0" d="M36,-824C36,-824 356,-824 356,-824 362,-824 368,-830 368,-836 368,-836 368,-1046 368,-1046 368,-1052 362,-1058 356,-1058 356,-1058 36,-1058 36,-1058 30,-1058 24,-1052 24,-1046 24,-1046 24,-836 24,-836 24,-830 30,-824 36,-824"/>
<text text-anchor="middle" x="196" y="-1045.2" font-family="Times,serif" font-size="11.00" fill="#c0c0c0">Persistence</text>
</g>
<g id="clust4" class="cluster">
<title>cluster_\PrivateBin\Data</title>
<path fill="none" stroke="#c0c0c0" d="M59.5,-690C59.5,-690 342.5,-690 342.5,-690 348.5,-690 354.5,-696 354.5,-702 354.5,-702 354.5,-804 354.5,-804 354.5,-810 348.5,-816 342.5,-816 342.5,-816 59.5,-816 59.5,-816 53.5,-816 47.5,-810 47.5,-804 47.5,-804 47.5,-702 47.5,-702 47.5,-696 53.5,-690 59.5,-690"/>
<text text-anchor="middle" x="201" y="-803.2" font-family="Times,serif" font-size="11.00" fill="#c0c0c0">Data</text>
</g>
<g id="clust5" class="cluster">
<title>cluster_\PrivateBin\Model</title>
<path fill="none" stroke="#c0c0c0" d="M56.5,-556C56.5,-556 332.5,-556 332.5,-556 338.5,-556 344.5,-562 344.5,-568 344.5,-568 344.5,-670 344.5,-670 344.5,-676 338.5,-682 332.5,-682 332.5,-682 56.5,-682 56.5,-682 50.5,-682 44.5,-676 44.5,-670 44.5,-670 44.5,-568 44.5,-568 44.5,-562 50.5,-556 56.5,-556"/>
<text text-anchor="middle" x="194.5" y="-669.2" font-family="Times,serif" font-size="11.00" fill="#c0c0c0">Model</text>
</g>
<!-- \\PrivateBin\\Persistence\\TrafficLimiter -->
<g id="node1" class="node">
<title>\\PrivateBin\\Persistence\\TrafficLimiter</title>
<polygon fill="none" stroke="#000000" points="360,-1030 249,-1030 249,-994 360,-994 360,-1030"/>
<text text-anchor="middle" x="304.5" y="-1009.2" font-family="Courier,monospace" font-size="11.00" fill="#000000">TrafficLimiter</text>
</g>
<!-- \\PrivateBin\\Persistence\\AbstractPersistence -->
<g id="node4" class="node">
<title>\\PrivateBin\\Persistence\\AbstractPersistence</title>
<polygon fill="none" stroke="#000000" points="177,-949 32,-949 32,-913 177,-913 177,-949"/>
<text text-anchor="start" x="70.5" y="-934.2" font-family="Courier,monospace" font-size="11.00" fill="#000000">«abstract»</text>
<text text-anchor="start" x="40" y="-922.2" font-family="Courier,monospace" font-size="11.00" fill="#000000">AbstractPersistence</text>
</g>
<!-- \\PrivateBin\\Persistence\\TrafficLimiter&#45;&gt;\\PrivateBin\\Persistence\\AbstractPersistence -->
<g id="edge1" class="edge">
<title>\\PrivateBin\\Persistence\\TrafficLimiter&#45;&gt;\\PrivateBin\\Persistence\\AbstractPersistence</title>
<path fill="none" stroke="#000000" d="M259.6161,-993.822C229.7657,-981.7326 190.3866,-965.7841 158.7758,-952.9817"/>
<polygon fill="none" stroke="#000000" points="159.8167,-949.6271 149.2341,-949.1173 157.1889,-956.1152 159.8167,-949.6271"/>
</g>
<!-- \\PrivateBin\\Persistence\\PurgeLimiter -->
<g id="node2" class="node">
<title>\\PrivateBin\\Persistence\\PurgeLimiter</title>
<polygon fill="none" stroke="#000000" points="353.5,-976 255.5,-976 255.5,-940 353.5,-940 353.5,-976"/>
<text text-anchor="middle" x="304.5" y="-955.2" font-family="Courier,monospace" font-size="11.00" fill="#000000">PurgeLimiter</text>
</g>
<!-- \\PrivateBin\\Persistence\\PurgeLimiter&#45;&gt;\\PrivateBin\\Persistence\\AbstractPersistence -->
<g id="edge2" class="edge">
<title>\\PrivateBin\\Persistence\\PurgeLimiter&#45;&gt;\\PrivateBin\\Persistence\\AbstractPersistence</title>
<path fill="none" stroke="#000000" d="M255.3183,-951.3605C234.8659,-948.5994 210.5508,-945.3169 187.4808,-942.2024"/>
<polygon fill="none" stroke="#000000" points="187.7156,-938.7024 177.3373,-940.833 186.7791,-945.6395 187.7156,-938.7024"/>
</g>
<!-- \\PrivateBin\\Persistence\\DataStore -->
<g id="node3" class="node">
<title>\\PrivateBin\\Persistence\\DataStore</title>
<polygon fill="none" stroke="#000000" points="343,-922 266,-922 266,-886 343,-886 343,-922"/>
<text text-anchor="middle" x="304.5" y="-901.2" font-family="Courier,monospace" font-size="11.00" fill="#000000">DataStore</text>
</g>
<!-- \\PrivateBin\\Persistence\\DataStore&#45;&gt;\\PrivateBin\\Persistence\\AbstractPersistence -->
<g id="edge4" class="edge">
<title>\\PrivateBin\\Persistence\\DataStore&#45;&gt;\\PrivateBin\\Persistence\\AbstractPersistence</title>
<path fill="none" stroke="#000000" d="M265.938,-909.2059C243.5958,-912.2221 214.5733,-916.1401 187.3086,-919.8208"/>
<polygon fill="none" stroke="#000000" points="186.8007,-916.3576 177.3588,-921.1641 187.7372,-923.2946 186.8007,-916.3576"/>
</g>
<!-- \\PrivateBin\\Persistence\\ServerSalt -->
<g id="node5" class="node">
<title>\\PrivateBin\\Persistence\\ServerSalt</title>
<polygon fill="none" stroke="#000000" points="346.5,-868 262.5,-868 262.5,-832 346.5,-832 346.5,-868"/>
<text text-anchor="middle" x="304.5" y="-847.2" font-family="Courier,monospace" font-size="11.00" fill="#000000">ServerSalt</text>
</g>
<!-- \\PrivateBin\\Persistence\\ServerSalt&#45;&gt;\\PrivateBin\\Persistence\\AbstractPersistence -->
<g id="edge7" class="edge">
<title>\\PrivateBin\\Persistence\\ServerSalt&#45;&gt;\\PrivateBin\\Persistence\\AbstractPersistence</title>
<path fill="none" stroke="#000000" d="M262.0851,-867.178C231.9244,-879.3931 191.1619,-895.9019 158.651,-909.0688"/>
<polygon fill="none" stroke="#000000" points="157.2376,-905.8651 149.2827,-912.863 159.8653,-912.3532 157.2376,-905.8651"/>
</g>
<!-- \\PrivateBin\\Data\\AbstractData -->
<g id="node6" class="node">
<title>\\PrivateBin\\Data\\AbstractData</title>
<polygon fill="none" stroke="#000000" points="153.5,-761 55.5,-761 55.5,-725 153.5,-725 153.5,-761"/>
<text text-anchor="start" x="70.5" y="-746.2" font-family="Courier,monospace" font-size="11.00" fill="#000000">«abstract»</text>
<text text-anchor="start" x="63.5" y="-734.2" font-family="Courier,monospace" font-size="11.00" fill="#000000">AbstractData</text>
</g>
<!-- \\PrivateBin\\Data\\Filesystem -->
<g id="node7" class="node">
<title>\\PrivateBin\\Data\\Filesystem</title>
<polygon fill="none" stroke="#000000" points="346.5,-788 262.5,-788 262.5,-752 346.5,-752 346.5,-788"/>
<text text-anchor="middle" x="304.5" y="-767.2" font-family="Courier,monospace" font-size="11.00" fill="#000000">Filesystem</text>
</g>
<!-- \\PrivateBin\\Data\\Filesystem&#45;&gt;\\PrivateBin\\Data\\AbstractData -->
<g id="edge3" class="edge">
<title>\\PrivateBin\\Data\\Filesystem&#45;&gt;\\PrivateBin\\Data\\AbstractData</title>
<path fill="none" stroke="#000000" d="M262.0851,-764.274C233.4249,-760.4049 195.1915,-755.2434 163.5622,-750.9734"/>
<polygon fill="none" stroke="#000000" points="163.9239,-747.4906 153.5455,-749.6211 162.9873,-754.4276 163.9239,-747.4906"/>
</g>
<!-- \\PrivateBin\\Data\\Database -->
<g id="node8" class="node">
<title>\\PrivateBin\\Data\\Database</title>
<polygon fill="none" stroke="#000000" points="340,-734 269,-734 269,-698 340,-698 340,-734"/>
<text text-anchor="middle" x="304.5" y="-713.2" font-family="Courier,monospace" font-size="11.00" fill="#000000">Database</text>
</g>
<!-- \\PrivateBin\\Data\\Database&#45;&gt;\\PrivateBin\\Data\\AbstractData -->
<g id="edge6" class="edge">
<title>\\PrivateBin\\Data\\Database&#45;&gt;\\PrivateBin\\Data\\AbstractData</title>
<path fill="none" stroke="#000000" d="M268.744,-720.8271C239.7241,-724.7447 198.1867,-730.3523 164.1456,-734.9478"/>
<polygon fill="none" stroke="#000000" points="163.2858,-731.5321 153.844,-736.3386 164.2223,-738.4692 163.2858,-731.5321"/>
</g>
<!-- \\PrivateBin\\Model\\Paste -->
<g id="node9" class="node">
<title>\\PrivateBin\\Model\\Paste</title>
<polygon fill="none" stroke="#000000" points="331.5,-654 277.5,-654 277.5,-618 331.5,-618 331.5,-654"/>
<text text-anchor="middle" x="304.5" y="-633.2" font-family="Courier,monospace" font-size="11.00" fill="#000000">Paste</text>
</g>
<!-- \\PrivateBin\\Model\\AbstractModel -->
<g id="node10" class="node">
<title>\\PrivateBin\\Model\\AbstractModel</title>
<polygon fill="none" stroke="#000000" points="156.5,-627 52.5,-627 52.5,-591 156.5,-591 156.5,-627"/>
<text text-anchor="start" x="70.5" y="-612.2" font-family="Courier,monospace" font-size="11.00" fill="#000000">«abstract»</text>
<text text-anchor="start" x="60.5" y="-600.2" font-family="Courier,monospace" font-size="11.00" fill="#000000">AbstractModel</text>
</g>
<!-- \\PrivateBin\\Model\\Paste&#45;&gt;\\PrivateBin\\Model\\AbstractModel -->
<g id="edge5" class="edge">
<title>\\PrivateBin\\Model\\Paste&#45;&gt;\\PrivateBin\\Model\\AbstractModel</title>
<path fill="none" stroke="#000000" d="M277.1102,-632.3024C248.8493,-628.4872 203.8018,-622.4057 166.8127,-617.4122"/>
<polygon fill="none" stroke="#000000" points="166.9925,-613.9048 156.6142,-616.0354 166.056,-620.8419 166.9925,-613.9048"/>
</g>
<!-- \\PrivateBin\\Model\\Comment -->
<g id="node11" class="node">
<title>\\PrivateBin\\Model\\Comment</title>
<polygon fill="none" stroke="#000000" points="336.5,-600 272.5,-600 272.5,-564 336.5,-564 336.5,-600"/>
<text text-anchor="middle" x="304.5" y="-579.2" font-family="Courier,monospace" font-size="11.00" fill="#000000">Comment</text>
</g>
<!-- \\PrivateBin\\Model\\Comment&#45;&gt;\\PrivateBin\\Model\\AbstractModel -->
<g id="edge8" class="edge">
<title>\\PrivateBin\\Model\\Comment&#45;&gt;\\PrivateBin\\Model\\AbstractModel</title>
<path fill="none" stroke="#000000" d="M272.3665,-586.338C244.0255,-590.1641 201.9144,-595.8491 166.9611,-600.5678"/>
<polygon fill="none" stroke="#000000" points="166.2813,-597.1277 156.8394,-601.9342 167.2178,-604.0648 166.2813,-597.1277"/>
</g>
<!-- \\PrivateBin\\Json -->
<g id="node12" class="node">
<title>\\PrivateBin\\Json</title>
<polygon fill="none" stroke="#000000" points="331.5,-546 277.5,-546 277.5,-510 331.5,-510 331.5,-546"/>
<text text-anchor="middle" x="304.5" y="-525.2" font-family="Courier,monospace" font-size="11.00" fill="#000000">Json</text>
</g>
<!-- \\PrivateBin\\Configuration -->
<g id="node13" class="node">
<title>\\PrivateBin\\Configuration</title>
<polygon fill="none" stroke="#000000" points="356.5,-492 252.5,-492 252.5,-456 356.5,-456 356.5,-492"/>
<text text-anchor="middle" x="304.5" y="-471.2" font-family="Courier,monospace" font-size="11.00" fill="#000000">Configuration</text>
</g>
<!-- \\PrivateBin\\Request -->
<g id="node14" class="node">
<title>\\PrivateBin\\Request</title>
<polygon fill="none" stroke="#000000" points="336.5,-438 272.5,-438 272.5,-402 336.5,-402 336.5,-438"/>
<text text-anchor="middle" x="304.5" y="-417.2" font-family="Courier,monospace" font-size="11.00" fill="#000000">Request</text>
</g>
<!-- \\PrivateBin\\View -->
<g id="node15" class="node">
<title>\\PrivateBin\\View</title>
<polygon fill="none" stroke="#000000" points="331.5,-384 277.5,-384 277.5,-348 331.5,-348 331.5,-384"/>
<text text-anchor="middle" x="304.5" y="-363.2" font-family="Courier,monospace" font-size="11.00" fill="#000000">View</text>
</g>
<!-- \\PrivateBin\\FormatV2 -->
<g id="node16" class="node">
<title>\\PrivateBin\\FormatV2</title>
<polygon fill="none" stroke="#000000" points="340,-330 269,-330 269,-294 340,-294 340,-330"/>
<text text-anchor="middle" x="304.5" y="-309.2" font-family="Courier,monospace" font-size="11.00" fill="#000000">FormatV2</text>
</g>
<!-- \\PrivateBin\\Vizhash16x16 -->
<g id="node17" class="node">
<title>\\PrivateBin\\Vizhash16x16</title>
<polygon fill="none" stroke="#000000" points="353.5,-276 255.5,-276 255.5,-240 353.5,-240 353.5,-276"/>
<text text-anchor="middle" x="304.5" y="-255.2" font-family="Courier,monospace" font-size="11.00" fill="#000000">Vizhash16x16</text>
</g>
<!-- \\PrivateBin\\Filter -->
<g id="node18" class="node">
<title>\\PrivateBin\\Filter</title>
<polygon fill="none" stroke="#000000" points="333,-222 276,-222 276,-186 333,-186 333,-222"/>
<text text-anchor="middle" x="304.5" y="-201.2" font-family="Courier,monospace" font-size="11.00" fill="#000000">Filter</text>
</g>
<!-- \\PrivateBin\\Controller -->
<g id="node19" class="node">
<title>\\PrivateBin\\Controller</title>
<polygon fill="none" stroke="#000000" points="346.5,-168 262.5,-168 262.5,-132 346.5,-132 346.5,-168"/>
<text text-anchor="middle" x="304.5" y="-147.2" font-family="Courier,monospace" font-size="11.00" fill="#000000">Controller</text>
</g>
<!-- \\PrivateBin\\Model -->
<g id="node20" class="node">
<title>\\PrivateBin\\Model</title>
<polygon fill="none" stroke="#000000" points="331.5,-114 277.5,-114 277.5,-78 331.5,-78 331.5,-114"/>
<text text-anchor="middle" x="304.5" y="-93.2" font-family="Courier,monospace" font-size="11.00" fill="#000000">Model</text>
</g>
<!-- \\PrivateBin\\I18n -->
<g id="node21" class="node">
<title>\\PrivateBin\\I18n</title>
<polygon fill="none" stroke="#000000" points="331.5,-60 277.5,-60 277.5,-24 331.5,-24 331.5,-60"/>
<text text-anchor="middle" x="304.5" y="-39.2" font-family="Courier,monospace" font-size="11.00" fill="#000000">I18n</text>
</g>
</g>
</svg>
