<?xml version="1.0" encoding="UTF-8" standalone="no"?>
<!DOCTYPE svg PUBLIC "-//W3C//DTD SVG 1.1//EN"
 "http://www.w3.org/Graphics/SVG/1.1/DTD/svg11.dtd">
<!-- Generated by graphviz version 2.43.0 (0)
 -->
<!-- Title: G Pages: 1 -->
<svg width="427pt" height="1238pt"
 viewBox="0.00 0.00 427.00 1238.00" xmlns="http://www.w3.org/2000/svg" xmlns:xlink="http://www.w3.org/1999/xlink">
<g id="graph0" class="graph" transform="scale(1 1) rotate(0) translate(4 1234)">
<title>G</title>
<polygon fill="white" stroke="transparent" points="-4,4 -4,-1234 423,-1234 423,4 -4,4"/>
<g id="clust1" class="cluster">
<title>cluster_Global</title>
<path fill="none" stroke="gray" d="M20,-8C20,-8 399,-8 399,-8 405,-8 411,-14 411,-20 411,-20 411,-1210 411,-1210 411,-1216 405,-1222 399,-1222 399,-1222 20,-1222 20,-1222 14,-1222 8,-1216 8,-1210 8,-1210 8,-20 8,-20 8,-14 14,-8 20,-8"/>
<text text-anchor="middle" x="209.5" y="-1209.2" font-family="Times,serif" font-size="11.00" fill="gray">Global</text>
</g>
<g id="clust2" class="cluster">
<title>cluster_\PrivateBin</title>
<path fill="none" stroke="gray" d="M28,-16C28,-16 391,-16 391,-16 397,-16 403,-22 403,-28 403,-28 403,-1182 403,-1182 403,-1188 397,-1194 391,-1194 391,-1194 28,-1194 28,-1194 22,-1194 16,-1188 16,-1182 16,-1182 16,-28 16,-28 16,-22 22,-16 28,-16"/>
<text text-anchor="middle" x="209.5" y="-1181.2" font-family="Times,serif" font-size="11.00" fill="gray">PrivateBin</text>
</g>
<g id="clust3" class="cluster">
<title>cluster_\PrivateBin\Data</title>
<path fill="none" stroke="gray" d="M59.5,-932C59.5,-932 383,-932 383,-932 389,-932 395,-938 395,-944 395,-944 395,-1154 395,-1154 395,-1160 389,-1166 383,-1166 383,-1166 59.5,-1166 59.5,-1166 53.5,-1166 47.5,-1160 47.5,-1154 47.5,-1154 47.5,-944 47.5,-944 47.5,-938 53.5,-932 59.5,-932"/>
<text text-anchor="middle" x="221.25" y="-1153.2" font-family="Times,serif" font-size="11.00" fill="gray">Data</text>
</g>
<g id="clust4" class="cluster">
<title>cluster_\PrivateBin\Persistence</title>
<path fill="none" stroke="gray" d="M36,-744C36,-744 369.5,-744 369.5,-744 375.5,-744 381.5,-750 381.5,-756 381.5,-756 381.5,-912 381.5,-912 381.5,-918 375.5,-924 369.5,-924 369.5,-924 36,-924 36,-924 30,-924 24,-918 24,-912 24,-912 24,-756 24,-756 24,-750 30,-744 36,-744"/>
<text text-anchor="middle" x="202.75" y="-911.2" font-family="Times,serif" font-size="11.00" fill="gray">Persistence</text>
</g>
<g id="clust5" class="cluster">
<title>cluster_\PrivateBin\Model</title>
<path fill="none" stroke="gray" d="M56.5,-610C56.5,-610 346,-610 346,-610 352,-610 358,-616 358,-622 358,-622 358,-724 358,-724 358,-730 352,-736 346,-736 346,-736 56.5,-736 56.5,-736 50.5,-736 44.5,-730 44.5,-724 44.5,-724 44.5,-622 44.5,-622 44.5,-616 50.5,-610 56.5,-610"/>
<text text-anchor="middle" x="201.25" y="-723.2" font-family="Times,serif" font-size="11.00" fill="gray">Model</text>
</g>
<!-- \\PrivateBin\\Data\\Filesystem -->
<g id="node1" class="node">
<title>\\PrivateBin\\Data\\Filesystem</title>
<polygon fill="none" stroke="black" points="360,-1138 276,-1138 276,-1102 360,-1102 360,-1138"/>
<text text-anchor="middle" x="318" y="-1117.2" font-family="Courier,monospace" font-size="11.00">Filesystem</text>
</g>
<!-- \\PrivateBin\\Data\\AbstractData -->
<g id="node4" class="node">
<title>\\PrivateBin\\Data\\AbstractData</title>
<polygon fill="none" stroke="black" points="153.5,-1057 55.5,-1057 55.5,-1021 153.5,-1021 153.5,-1057"/>
<text text-anchor="start" x="70.5" y="-1042.2" font-family="Courier,monospace" font-size="11.00">«abstract»</text>
<text text-anchor="start" x="63.5" y="-1030.2" font-family="Courier,monospace" font-size="11.00">AbstractData</text>
</g>
<!-- \\PrivateBin\\Data\\Filesystem&#45;&gt;\\PrivateBin\\Data\\AbstractData -->
<g id="edge1" class="edge">
<title>\\PrivateBin\\Data\\Filesystem&#45;&gt;\\PrivateBin\\Data\\AbstractData</title>
<path fill="none" stroke="black" d="M275.97,-1104.29C243.55,-1091.87 197.94,-1074.4 162.06,-1060.66"/>
<polygon fill="none" stroke="black" points="163.28,-1057.38 152.69,-1057.07 160.77,-1063.92 163.28,-1057.38"/>
</g>
<!-- \\PrivateBin\\Data\\Database -->
<g id="node2" class="node">
<title>\\PrivateBin\\Data\\Database</title>
<polygon fill="none" stroke="black" points="353.5,-1084 282.5,-1084 282.5,-1048 353.5,-1048 353.5,-1084"/>
<text text-anchor="middle" x="318" y="-1063.2" font-family="Courier,monospace" font-size="11.00">Database</text>
</g>
<!-- \\PrivateBin\\Data\\Database&#45;&gt;\\PrivateBin\\Data\\AbstractData -->
<g id="edge2" class="edge">
<title>\\PrivateBin\\Data\\Database&#45;&gt;\\PrivateBin\\Data\\AbstractData</title>
<path fill="none" stroke="black" d="M282.08,-1061.54C250.01,-1057.45 201.86,-1051.3 163.94,-1046.46"/>
<polygon fill="none" stroke="black" points="163.9,-1042.93 153.54,-1045.13 163.01,-1049.87 163.9,-1042.93"/>
</g>
<!-- \\PrivateBin\\Data\\GoogleCloudStorage -->
<g id="node3" class="node">
<title>\\PrivateBin\\Data\\GoogleCloudStorage</title>
<polygon fill="none" stroke="black" points="387,-1030 249,-1030 249,-994 387,-994 387,-1030"/>
<text text-anchor="middle" x="318" y="-1009.2" font-family="Courier,monospace" font-size="11.00">GoogleCloudStorage</text>
</g>
<!-- \\PrivateBin\\Data\\GoogleCloudStorage&#45;&gt;\\PrivateBin\\Data\\AbstractData -->
<g id="edge3" class="edge">
<title>\\PrivateBin\\Data\\GoogleCloudStorage&#45;&gt;\\PrivateBin\\Data\\AbstractData</title>
<path fill="none" stroke="black" d="M248.92,-1020.69C221.52,-1024.19 190.24,-1028.18 163.9,-1031.54"/>
<polygon fill="none" stroke="black" points="163.17,-1028.11 153.69,-1032.85 164.06,-1035.05 163.17,-1028.11"/>
</g>
<!-- \\PrivateBin\\Data\\S3Storage -->
<g id="node5" class="node">
<title>\\PrivateBin\\Data\\S3Storage</title>
<polygon fill="none" stroke="black" points="356.5,-976 279.5,-976 279.5,-940 356.5,-940 356.5,-976"/>
<text text-anchor="middle" x="318" y="-955.2" font-family="Courier,monospace" font-size="11.00">S3Storage</text>
</g>
<!-- \\PrivateBin\\Data\\S3Storage&#45;&gt;\\PrivateBin\\Data\\AbstractData -->
<g id="edge4" class="edge">
<title>\\PrivateBin\\Data\\S3Storage&#45;&gt;\\PrivateBin\\Data\\AbstractData</title>
<path fill="none" stroke="black" d="M279.19,-972.48C246.68,-984.93 199.33,-1003.06 162.28,-1017.26"/>
<polygon fill="none" stroke="black" points="160.69,-1014.11 152.61,-1020.96 163.2,-1020.65 160.69,-1014.11"/>
</g>
<!-- \\PrivateBin\\Persistence\\TrafficLimiter -->
<g id="node6" class="node">
<title>\\PrivateBin\\Persistence\\TrafficLimiter</title>
<polygon fill="none" stroke="black" points="373.5,-896 262.5,-896 262.5,-860 373.5,-860 373.5,-896"/>
<text text-anchor="middle" x="318" y="-875.2" font-family="Courier,monospace" font-size="11.00">TrafficLimiter</text>
</g>
<!-- \\PrivateBin\\Persistence\\AbstractPersistence -->
<g id="node7" class="node">
<title>\\PrivateBin\\Persistence\\AbstractPersistence</title>
<polygon fill="none" stroke="black" points="177,-842 32,-842 32,-806 177,-806 177,-842"/>
<text text-anchor="start" x="70.5" y="-827.2" font-family="Courier,monospace" font-size="11.00">«abstract»</text>
<text text-anchor="start" x="40" y="-815.2" font-family="Courier,monospace" font-size="11.00">AbstractPersistence</text>
</g>
<!-- \\PrivateBin\\Persistence\\TrafficLimiter&#45;&gt;\\PrivateBin\\Persistence\\AbstractPersistence -->
<g id="edge5" class="edge">
<title>\\PrivateBin\\Persistence\\TrafficLimiter&#45;&gt;\\PrivateBin\\Persistence\\AbstractPersistence</title>
<path fill="none" stroke="black" d="M262.26,-864.02C239.14,-858.12 211.73,-851.12 186.36,-844.64"/>
<polygon fill="none" stroke="black" points="186.93,-841.18 176.38,-842.1 185.2,-847.96 186.93,-841.18"/>
</g>
<!-- \\PrivateBin\\Persistence\\PurgeLimiter -->
<g id="node8" class="node">
<title>\\PrivateBin\\Persistence\\PurgeLimiter</title>
<polygon fill="none" stroke="black" points="367,-842 269,-842 269,-806 367,-806 367,-842"/>
<text text-anchor="middle" x="318" y="-821.2" font-family="Courier,monospace" font-size="11.00">PurgeLimiter</text>
</g>
<!-- \\PrivateBin\\Persistence\\PurgeLimiter&#45;&gt;\\PrivateBin\\Persistence\\AbstractPersistence -->
<g id="edge6" class="edge">
<title>\\PrivateBin\\Persistence\\PurgeLimiter&#45;&gt;\\PrivateBin\\Persistence\\AbstractPersistence</title>
<path fill="none" stroke="black" d="M268.74,-824C244.64,-824 214.81,-824 187.26,-824"/>
<polygon fill="none" stroke="black" points="187.24,-820.5 177.24,-824 187.24,-827.5 187.24,-820.5"/>
</g>
<!-- \\PrivateBin\\Persistence\\ServerSalt -->
<g id="node9" class="node">
<title>\\PrivateBin\\Persistence\\ServerSalt</title>
<polygon fill="none" stroke="black" points="360,-788 276,-788 276,-752 360,-752 360,-788"/>
<text text-anchor="middle" x="318" y="-767.2" font-family="Courier,monospace" font-size="11.00">ServerSalt</text>
</g>
<!-- \\PrivateBin\\Persistence\\ServerSalt&#45;&gt;\\PrivateBin\\Persistence\\AbstractPersistence -->
<g id="edge7" class="edge">
<title>\\PrivateBin\\Persistence\\ServerSalt&#45;&gt;\\PrivateBin\\Persistence\\AbstractPersistence</title>
<path fill="none" stroke="black" d="M275.97,-780.48C250.5,-786.98 216.88,-795.56 186.24,-803.39"/>
<polygon fill="none" stroke="black" points="185.23,-800.03 176.41,-805.9 186.97,-806.81 185.23,-800.03"/>
</g>
<!-- \\PrivateBin\\Model\\Comment -->
<g id="node10" class="node">
<title>\\PrivateBin\\Model\\Comment</title>
<polygon fill="none" stroke="black" points="350,-708 286,-708 286,-672 350,-672 350,-708"/>
<text text-anchor="middle" x="318" y="-687.2" font-family="Courier,monospace" font-size="11.00">Comment</text>
</g>
<!-- \\PrivateBin\\Model\\AbstractModel -->
<g id="node11" class="node">
<title>\\PrivateBin\\Model\\AbstractModel</title>
<polygon fill="none" stroke="black" points="156.5,-681 52.5,-681 52.5,-645 156.5,-645 156.5,-681"/>
<text text-anchor="start" x="70.5" y="-666.2" font-family="Courier,monospace" font-size="11.00">«abstract»</text>
<text text-anchor="start" x="60.5" y="-654.2" font-family="Courier,monospace" font-size="11.00">AbstractModel</text>
</g>
<!-- \\PrivateBin\\Model\\Comment&#45;&gt;\\PrivateBin\\Model\\AbstractModel -->
<g id="edge8" class="edge">
<title>\\PrivateBin\\Model\\Comment&#45;&gt;\\PrivateBin\\Model\\AbstractModel</title>
<path fill="none" stroke="black" d="M285.79,-686.02C254.57,-682.03 205.71,-675.79 166.72,-670.82"/>
<polygon fill="none" stroke="black" points="166.89,-667.31 156.53,-669.51 166.01,-674.25 166.89,-667.31"/>
</g>
<!-- \\PrivateBin\\Model\\Paste -->
<g id="node12" class="node">
<title>\\PrivateBin\\Model\\Paste</title>
<polygon fill="none" stroke="black" points="345,-654 291,-654 291,-618 345,-618 345,-654"/>
<text text-anchor="middle" x="318" y="-633.2" font-family="Courier,monospace" font-size="11.00">Paste</text>
</g>
<!-- \\PrivateBin\\Model\\Paste&#45;&gt;\\PrivateBin\\Model\\AbstractModel -->
<g id="edge9" class="edge">
<title>\\PrivateBin\\Model\\Paste&#45;&gt;\\PrivateBin\\Model\\AbstractModel</title>
<path fill="none" stroke="black" d="M290.64,-639.36C259.75,-643.31 207.55,-649.97 166.44,-655.22"/>
<polygon fill="none" stroke="black" points="165.99,-651.75 156.51,-656.49 166.87,-658.69 165.99,-651.75"/>
</g>
<!-- \\PrivateBin\\Filter -->
<g id="node13" class="node">
<title>\\PrivateBin\\Filter</title>
<polygon fill="none" stroke="black" points="346.5,-600 289.5,-600 289.5,-564 346.5,-564 346.5,-600"/>
<text text-anchor="middle" x="318" y="-579.2" font-family="Courier,monospace" font-size="11.00">Filter</text>
</g>
<!-- \\PrivateBin\\Model -->
<g id="node14" class="node">
<title>\\PrivateBin\\Model</title>
<polygon fill="none" stroke="black" points="345,-546 291,-546 291,-510 345,-510 345,-546"/>
<text text-anchor="middle" x="318" y="-525.2" font-family="Courier,monospace" font-size="11.00">Model</text>
</g>
<!-- \\PrivateBin\\Controller -->
<g id="node15" class="node">
<title>\\PrivateBin\\Controller</title>
<polygon fill="none" stroke="black" points="360,-492 276,-492 276,-456 360,-456 360,-492"/>
<text text-anchor="middle" x="318" y="-471.2" font-family="Courier,monospace" font-size="11.00">Controller</text>
</g>
<!-- \\PrivateBin\\View -->
<g id="node16" class="node">
<title>\\PrivateBin\\View</title>
<polygon fill="none" stroke="black" points="345,-438 291,-438 291,-402 345,-402 345,-438"/>
<text text-anchor="middle" x="318" y="-417.2" font-family="Courier,monospace" font-size="11.00">View</text>
</g>
<!-- \\PrivateBin\\YourlsProxy -->
<g id="node17" class="node">
<title>\\PrivateBin\\YourlsProxy</title>
<polygon fill="none" stroke="black" points="363.5,-384 272.5,-384 272.5,-348 363.5,-348 363.5,-384"/>
<text text-anchor="middle" x="318" y="-363.2" font-family="Courier,monospace" font-size="11.00">YourlsProxy</text>
</g>
<!-- \\PrivateBin\\Request -->
<g id="node18" class="node">
<title>\\PrivateBin\\Request</title>
<polygon fill="none" stroke="black" points="350,-330 286,-330 286,-294 350,-294 350,-330"/>
<text text-anchor="middle" x="318" y="-309.2" font-family="Courier,monospace" font-size="11.00">Request</text>
</g>
<!-- \\PrivateBin\\I18n -->
<g id="node19" class="node">
<title>\\PrivateBin\\I18n</title>
<polygon fill="none" stroke="black" points="345,-276 291,-276 291,-240 345,-240 345,-276"/>
<text text-anchor="middle" x="318" y="-255.2" font-family="Courier,monospace" font-size="11.00">I18n</text>
</g>
<!-- \\PrivateBin\\Configuration -->
<g id="node20" class="node">
<title>\\PrivateBin\\Configuration</title>
<polygon fill="none" stroke="black" points="370,-222 266,-222 266,-186 370,-186 370,-222"/>
<text text-anchor="middle" x="318" y="-201.2" font-family="Courier,monospace" font-size="11.00">Configuration</text>
</g>
<!-- \\PrivateBin\\FormatV2 -->
<g id="node21" class="node">
<title>\\PrivateBin\\FormatV2</title>
<polygon fill="none" stroke="black" points="353.5,-168 282.5,-168 282.5,-132 353.5,-132 353.5,-168"/>
<text text-anchor="middle" x="318" y="-147.2" font-family="Courier,monospace" font-size="11.00">FormatV2</text>
</g>
<!-- \\PrivateBin\\Json -->
<g id="node22" class="node">
<title>\\PrivateBin\\Json</title>
<polygon fill="none" stroke="black" points="345,-114 291,-114 291,-78 345,-78 345,-114"/>
<text text-anchor="middle" x="318" y="-93.2" font-family="Courier,monospace" font-size="11.00">Json</text>
</g>
<!-- \\PrivateBin\\Vizhash16x16 -->
<g id="node23" class="node">
<title>\\PrivateBin\\Vizhash16x16</title>
<polygon fill="none" stroke="black" points="367,-60 269,-60 269,-24 367,-24 367,-60"/>
<text text-anchor="middle" x="318" y="-39.2" font-family="Courier,monospace" font-size="11.00">Vizhash16x16</text>
</g>
</g>
</svg>
