<?xml version="1.0" encoding="UTF-8" standalone="no"?>
<!DOCTYPE svg PUBLIC "-//W3C//DTD SVG 1.1//EN"
 "http://www.w3.org/Graphics/SVG/1.1/DTD/svg11.dtd">
<!-- Generated by graphviz version 2.43.0 (0)
 -->
<!-- Title: G Pages: 1 -->
<svg width="427pt" height="1130pt"
 viewBox="0.00 0.00 427.00 1130.00" xmlns="http://www.w3.org/2000/svg" xmlns:xlink="http://www.w3.org/1999/xlink">
<g id="graph0" class="graph" transform="scale(1 1) rotate(0) translate(4 1126)">
<title>G</title>
<polygon fill="white" stroke="transparent" points="-4,4 -4,-1126 423,-1126 423,4 -4,4"/>
<g id="clust1" class="cluster">
<title>cluster_Global</title>
<path fill="none" stroke="gray" d="M20,-8C20,-8 399,-8 399,-8 405,-8 411,-14 411,-20 411,-20 411,-1102 411,-1102 411,-1108 405,-1114 399,-1114 399,-1114 20,-1114 20,-1114 14,-1114 8,-1108 8,-1102 8,-1102 8,-20 8,-20 8,-14 14,-8 20,-8"/>
<text text-anchor="middle" x="209.5" y="-1101.2" font-family="Times,serif" font-size="11.00" fill="gray">Global</text>
</g>
<g id="clust2" class="cluster">
<title>cluster_\PrivateBin</title>
<path fill="none" stroke="gray" d="M28,-16C28,-16 391,-16 391,-16 397,-16 403,-22 403,-28 403,-28 403,-1074 403,-1074 403,-1080 397,-1086 391,-1086 391,-1086 28,-1086 28,-1086 22,-1086 16,-1080 16,-1074 16,-1074 16,-28 16,-28 16,-22 22,-16 28,-16"/>
<text text-anchor="middle" x="209.5" y="-1073.2" font-family="Times,serif" font-size="11.00" fill="gray">PrivateBin</text>
</g>
<g id="clust3" class="cluster">
<title>cluster_\PrivateBin\Persistence</title>
<path fill="none" stroke="gray" d="M36,-878C36,-878 369.5,-878 369.5,-878 375.5,-878 381.5,-884 381.5,-890 381.5,-890 381.5,-1046 381.5,-1046 381.5,-1052 375.5,-1058 369.5,-1058 369.5,-1058 36,-1058 36,-1058 30,-1058 24,-1052 24,-1046 24,-1046 24,-890 24,-890 24,-884 30,-878 36,-878"/>
<text text-anchor="middle" x="202.75" y="-1045.2" font-family="Times,serif" font-size="11.00" fill="gray">Persistence</text>
</g>
<g id="clust4" class="cluster">
<title>cluster_\PrivateBin\Data</title>
<path fill="none" stroke="gray" d="M59.5,-690C59.5,-690 383,-690 383,-690 389,-690 395,-696 395,-702 395,-702 395,-858 395,-858 395,-864 389,-870 383,-870 383,-870 59.5,-870 59.5,-870 53.5,-870 47.5,-864 47.5,-858 47.5,-858 47.5,-702 47.5,-702 47.5,-696 53.5,-690 59.5,-690"/>
<text text-anchor="middle" x="221.25" y="-857.2" font-family="Times,serif" font-size="11.00" fill="gray">Data</text>
</g>
<g id="clust5" class="cluster">
<title>cluster_\PrivateBin\Model</title>
<path fill="none" stroke="gray" d="M56.5,-556C56.5,-556 346,-556 346,-556 352,-556 358,-562 358,-568 358,-568 358,-670 358,-670 358,-676 352,-682 346,-682 346,-682 56.5,-682 56.5,-682 50.5,-682 44.5,-676 44.5,-670 44.5,-670 44.5,-568 44.5,-568 44.5,-562 50.5,-556 56.5,-556"/>
<text text-anchor="middle" x="201.25" y="-669.2" font-family="Times,serif" font-size="11.00" fill="gray">Model</text>
</g>
<!-- \\PrivateBin\\Persistence\\TrafficLimiter -->
<g id="node1" class="node">
<title>\\PrivateBin\\Persistence\\TrafficLimiter</title>
<polygon fill="none" stroke="black" points="373.5,-1030 262.5,-1030 262.5,-994 373.5,-994 373.5,-1030"/>
<text text-anchor="middle" x="318" y="-1009.2" font-family="Courier,monospace" font-size="11.00">TrafficLimiter</text>
</g>
<!-- \\PrivateBin\\Persistence\\AbstractPersistence -->
<g id="node3" class="node">
<title>\\PrivateBin\\Persistence\\AbstractPersistence</title>
<polygon fill="none" stroke="black" points="177,-976 32,-976 32,-940 177,-940 177,-976"/>
<text text-anchor="start" x="70.5" y="-961.2" font-family="Courier,monospace" font-size="11.00">«abstract»</text>
<text text-anchor="start" x="40" y="-949.2" font-family="Courier,monospace" font-size="11.00">AbstractPersistence</text>
</g>
<!-- \\PrivateBin\\Persistence\\TrafficLimiter&#45;&gt;\\PrivateBin\\Persistence\\AbstractPersistence -->
<g id="edge1" class="edge">
<title>\\PrivateBin\\Persistence\\TrafficLimiter&#45;&gt;\\PrivateBin\\Persistence\\AbstractPersistence</title>
<path fill="none" stroke="black" d="M262.26,-998.02C239.14,-992.12 211.73,-985.12 186.36,-978.64"/>
<polygon fill="none" stroke="black" points="186.93,-975.18 176.38,-976.1 185.2,-981.96 186.93,-975.18"/>
</g>
<!-- \\PrivateBin\\Persistence\\PurgeLimiter -->
<g id="node2" class="node">
<title>\\PrivateBin\\Persistence\\PurgeLimiter</title>
<polygon fill="none" stroke="black" points="367,-976 269,-976 269,-940 367,-940 367,-976"/>
<text text-anchor="middle" x="318" y="-955.2" font-family="Courier,monospace" font-size="11.00">PurgeLimiter</text>
</g>
<!-- \\PrivateBin\\Persistence\\PurgeLimiter&#45;&gt;\\PrivateBin\\Persistence\\AbstractPersistence -->
<g id="edge2" class="edge">
<title>\\PrivateBin\\Persistence\\PurgeLimiter&#45;&gt;\\PrivateBin\\Persistence\\AbstractPersistence</title>
<path fill="none" stroke="black" d="M268.74,-958C244.64,-958 214.81,-958 187.26,-958"/>
<polygon fill="none" stroke="black" points="187.24,-954.5 177.24,-958 187.24,-961.5 187.24,-954.5"/>
</g>
<!-- \\PrivateBin\\Persistence\\ServerSalt -->
<g id="node4" class="node">
<title>\\PrivateBin\\Persistence\\ServerSalt</title>
<polygon fill="none" stroke="black" points="360,-922 276,-922 276,-886 360,-886 360,-922"/>
<text text-anchor="middle" x="318" y="-901.2" font-family="Courier,monospace" font-size="11.00">ServerSalt</text>
</g>
<!-- \\PrivateBin\\Persistence\\ServerSalt&#45;&gt;\\PrivateBin\\Persistence\\AbstractPersistence -->
<g id="edge6" class="edge">
<title>\\PrivateBin\\Persistence\\ServerSalt&#45;&gt;\\PrivateBin\\Persistence\\AbstractPersistence</title>
<path fill="none" stroke="black" d="M275.97,-914.48C250.5,-920.98 216.88,-929.56 186.24,-937.39"/>
<polygon fill="none" stroke="black" points="185.23,-934.03 176.41,-939.9 186.97,-940.81 185.23,-934.03"/>
</g>
<!-- \\PrivateBin\\Data\\AbstractData -->
<g id="node5" class="node">
<title>\\PrivateBin\\Data\\AbstractData</title>
<polygon fill="none" stroke="black" points="153.5,-788 55.5,-788 55.5,-752 153.5,-752 153.5,-788"/>
<text text-anchor="start" x="70.5" y="-773.2" font-family="Courier,monospace" font-size="11.00">«abstract»</text>
<text text-anchor="start" x="63.5" y="-761.2" font-family="Courier,monospace" font-size="11.00">AbstractData</text>
</g>
<!-- \\PrivateBin\\Data\\Filesystem -->
<g id="node6" class="node">
<title>\\PrivateBin\\Data\\Filesystem</title>
<polygon fill="none" stroke="black" points="360,-842 276,-842 276,-806 360,-806 360,-842"/>
<text text-anchor="middle" x="318" y="-821.2" font-family="Courier,monospace" font-size="11.00">Filesystem</text>
</g>
<!-- \\PrivateBin\\Data\\Filesystem&#45;&gt;\\PrivateBin\\Data\\AbstractData -->
<g id="edge3" class="edge">
<title>\\PrivateBin\\Data\\Filesystem&#45;&gt;\\PrivateBin\\Data\\AbstractData</title>
<path fill="none" stroke="black" d="M275.97,-813.52C244.02,-805.37 199.25,-793.94 163.62,-784.84"/>
<polygon fill="none" stroke="black" points="164.38,-781.42 153.83,-782.34 162.65,-788.2 164.38,-781.42"/>
</g>
<!-- \\PrivateBin\\Data\\Database -->
<g id="node7" class="node">
<title>\\PrivateBin\\Data\\Database</title>
<polygon fill="none" stroke="black" points="353.5,-788 282.5,-788 282.5,-752 353.5,-752 353.5,-788"/>
<text text-anchor="middle" x="318" y="-767.2" font-family="Courier,monospace" font-size="11.00">Database</text>
</g>
<!-- \\PrivateBin\\Data\\Database&#45;&gt;\\PrivateBin\\Data\\AbstractData -->
<g id="edge5" class="edge">
<title>\\PrivateBin\\Data\\Database&#45;&gt;\\PrivateBin\\Data\\AbstractData</title>
<path fill="none" stroke="black" d="M282.08,-770C250.01,-770 201.86,-770 163.94,-770"/>
<polygon fill="none" stroke="black" points="163.54,-766.5 153.54,-770 163.54,-773.5 163.54,-766.5"/>
</g>
<!-- \\PrivateBin\\Data\\GoogleCloudStorage -->
<g id="node8" class="node">
<title>\\PrivateBin\\Data\\GoogleCloudStorage</title>
<polygon fill="none" stroke="black" points="387,-734 249,-734 249,-698 387,-698 387,-734"/>
<text text-anchor="middle" x="318" y="-713.2" font-family="Courier,monospace" font-size="11.00">GoogleCloudStorage</text>
</g>
<!-- \\PrivateBin\\Data\\GoogleCloudStorage&#45;&gt;\\PrivateBin\\Data\\AbstractData -->
<g id="edge8" class="edge">
<title>\\PrivateBin\\Data\\GoogleCloudStorage&#45;&gt;\\PrivateBin\\Data\\AbstractData</title>
<path fill="none" stroke="black" d="M248.92,-733.38C221.4,-740.41 189.96,-748.43 163.55,-755.18"/>
<polygon fill="none" stroke="black" points="162.52,-751.83 153.69,-757.7 164.25,-758.61 162.52,-751.83"/>
</g>
<!-- \\PrivateBin\\Model\\Paste -->
<g id="node9" class="node">
<title>\\PrivateBin\\Model\\Paste</title>
<polygon fill="none" stroke="black" points="345,-654 291,-654 291,-618 345,-618 345,-654"/>
<text text-anchor="middle" x="318" y="-633.2" font-family="Courier,monospace" font-size="11.00">Paste</text>
</g>
<!-- \\PrivateBin\\Model\\AbstractModel -->
<g id="node10" class="node">
<title>\\PrivateBin\\Model\\AbstractModel</title>
<polygon fill="none" stroke="black" points="156.5,-627 52.5,-627 52.5,-591 156.5,-591 156.5,-627"/>
<text text-anchor="start" x="70.5" y="-612.2" font-family="Courier,monospace" font-size="11.00">«abstract»</text>
<text text-anchor="start" x="60.5" y="-600.2" font-family="Courier,monospace" font-size="11.00">AbstractModel</text>
</g>
<!-- \\PrivateBin\\Model\\Paste&#45;&gt;\\PrivateBin\\Model\\AbstractModel -->
<g id="edge4" class="edge">
<title>\\PrivateBin\\Model\\Paste&#45;&gt;\\PrivateBin\\Model\\AbstractModel</title>
<path fill="none" stroke="black" d="M290.64,-632.64C259.75,-628.69 207.55,-622.03 166.44,-616.78"/>
<polygon fill="none" stroke="black" points="166.87,-613.31 156.51,-615.51 165.99,-620.25 166.87,-613.31"/>
</g>
<!-- \\PrivateBin\\Model\\Comment -->
<g id="node11" class="node">
<title>\\PrivateBin\\Model\\Comment</title>
<polygon fill="none" stroke="black" points="350,-600 286,-600 286,-564 350,-564 350,-600"/>
<text text-anchor="middle" x="318" y="-579.2" font-family="Courier,monospace" font-size="11.00">Comment</text>
</g>
<!-- \\PrivateBin\\Model\\Comment&#45;&gt;\\PrivateBin\\Model\\AbstractModel -->
<g id="edge7" class="edge">
<title>\\PrivateBin\\Model\\Comment&#45;&gt;\\PrivateBin\\Model\\AbstractModel</title>
<path fill="none" stroke="black" d="M285.79,-585.98C254.57,-589.97 205.71,-596.21 166.72,-601.18"/>
<polygon fill="none" stroke="black" points="166.01,-597.75 156.53,-602.49 166.89,-604.69 166.01,-597.75"/>
</g>
<!-- \\PrivateBin\\Json -->
<g id="node12" class="node">
<title>\\PrivateBin\\Json</title>
<polygon fill="none" stroke="black" points="345,-546 291,-546 291,-510 345,-510 345,-546"/>
<text text-anchor="middle" x="318" y="-525.2" font-family="Courier,monospace" font-size="11.00">Json</text>
</g>
<!-- \\PrivateBin\\Configuration -->
<g id="node13" class="node">
<title>\\PrivateBin\\Configuration</title>
<polygon fill="none" stroke="black" points="370,-492 266,-492 266,-456 370,-456 370,-492"/>
<text text-anchor="middle" x="318" y="-471.2" font-family="Courier,monospace" font-size="11.00">Configuration</text>
</g>
<!-- \\PrivateBin\\Request -->
<g id="node14" class="node">
<title>\\PrivateBin\\Request</title>
<polygon fill="none" stroke="black" points="350,-438 286,-438 286,-402 350,-402 350,-438"/>
<text text-anchor="middle" x="318" y="-417.2" font-family="Courier,monospace" font-size="11.00">Request</text>
</g>
<!-- \\PrivateBin\\View -->
<g id="node15" class="node">
<title>\\PrivateBin\\View</title>
<polygon fill="none" stroke="black" points="345,-384 291,-384 291,-348 345,-348 345,-384"/>
<text text-anchor="middle" x="318" y="-363.2" font-family="Courier,monospace" font-size="11.00">View</text>
</g>
<!-- \\PrivateBin\\FormatV2 -->
<g id="node16" class="node">
<title>\\PrivateBin\\FormatV2</title>
<polygon fill="none" stroke="black" points="353.5,-330 282.5,-330 282.5,-294 353.5,-294 353.5,-330"/>
<text text-anchor="middle" x="318" y="-309.2" font-family="Courier,monospace" font-size="11.00">FormatV2</text>
</g>
<!-- \\PrivateBin\\Vizhash16x16 -->
<g id="node17" class="node">
<title>\\PrivateBin\\Vizhash16x16</title>
<polygon fill="none" stroke="black" points="367,-276 269,-276 269,-240 367,-240 367,-276"/>
<text text-anchor="middle" x="318" y="-255.2" font-family="Courier,monospace" font-size="11.00">Vizhash16x16</text>
</g>
<!-- \\PrivateBin\\Filter -->
<g id="node18" class="node">
<title>\\PrivateBin\\Filter</title>
<polygon fill="none" stroke="black" points="346.5,-222 289.5,-222 289.5,-186 346.5,-186 346.5,-222"/>
<text text-anchor="middle" x="318" y="-201.2" font-family="Courier,monospace" font-size="11.00">Filter</text>
</g>
<!-- \\PrivateBin\\Controller -->
<g id="node19" class="node">
<title>\\PrivateBin\\Controller</title>
<polygon fill="none" stroke="black" points="360,-168 276,-168 276,-132 360,-132 360,-168"/>
<text text-anchor="middle" x="318" y="-147.2" font-family="Courier,monospace" font-size="11.00">Controller</text>
</g>
<!-- \\PrivateBin\\Model -->
<g id="node20" class="node">
<title>\\PrivateBin\\Model</title>
<polygon fill="none" stroke="black" points="345,-114 291,-114 291,-78 345,-78 345,-114"/>
<text text-anchor="middle" x="318" y="-93.2" font-family="Courier,monospace" font-size="11.00">Model</text>
</g>
<!-- \\PrivateBin\\I18n -->
<g id="node21" class="node">
<title>\\PrivateBin\\I18n</title>
<polygon fill="none" stroke="black" points="345,-60 291,-60 291,-24 345,-24 345,-60"/>
<text text-anchor="middle" x="318" y="-39.2" font-family="Courier,monospace" font-size="11.00">I18n</text>
</g>
</g>
</svg>
