<?xml version="1.0" encoding="UTF-8" standalone="no"?>
<!DOCTYPE svg PUBLIC "-//W3C//DTD SVG 1.1//EN"
 "http://www.w3.org/Graphics/SVG/1.1/DTD/svg11.dtd">
<!-- Generated by graphviz version 2.38.0 (20140413.2041)
 -->
<!-- Title: G Pages: 1 -->
<svg width="400pt" height="1130pt"
 viewBox="0.00 0.00 400.00 1130.00" xmlns="http://www.w3.org/2000/svg" xmlns:xlink="http://www.w3.org/1999/xlink">
<g id="graph0" class="graph" transform="scale(1 1) rotate(0) translate(4 1126)">
<title>G</title>
<polygon fill="white" stroke="none" points="-4,4 -4,-1126 396,-1126 396,4 -4,4"/>
<g id="clust1" class="cluster"><title>cluster_Global</title>
<path fill="none" stroke="gray" d="M20,-8C20,-8 372,-8 372,-8 378,-8 384,-14 384,-20 384,-20 384,-1102 384,-1102 384,-1108 378,-1114 372,-1114 372,-1114 20,-1114 20,-1114 14,-1114 8,-1108 8,-1102 8,-1102 8,-20 8,-20 8,-14 14,-8 20,-8"/>
<text text-anchor="middle" x="196" y="-1101.2" font-family="Times,serif" font-size="11.00" fill="gray">Global</text>
</g>
<g id="clust2" class="cluster"><title>cluster_\PrivateBin</title>
<path fill="none" stroke="gray" d="M28,-16C28,-16 364,-16 364,-16 370,-16 376,-22 376,-28 376,-28 376,-1074 376,-1074 376,-1080 370,-1086 364,-1086 364,-1086 28,-1086 28,-1086 22,-1086 16,-1080 16,-1074 16,-1074 16,-28 16,-28 16,-22 22,-16 28,-16"/>
<text text-anchor="middle" x="196" y="-1073.2" font-family="Times,serif" font-size="11.00" fill="gray">PrivateBin</text>
</g>
<g id="clust3" class="cluster"><title>cluster_\PrivateBin\Persistence</title>
<path fill="none" stroke="gray" d="M36,-824C36,-824 356,-824 356,-824 362,-824 368,-830 368,-836 368,-836 368,-1046 368,-1046 368,-1052 362,-1058 356,-1058 356,-1058 36,-1058 36,-1058 30,-1058 24,-1052 24,-1046 24,-1046 24,-836 24,-836 24,-830 30,-824 36,-824"/>
<text text-anchor="middle" x="196" y="-1045.2" font-family="Times,serif" font-size="11.00" fill="gray">Persistence</text>
</g>
<g id="clust4" class="cluster"><title>cluster_\PrivateBin\Data</title>
<path fill="none" stroke="gray" d="M59.5,-690C59.5,-690 342.5,-690 342.5,-690 348.5,-690 354.5,-696 354.5,-702 354.5,-702 354.5,-804 354.5,-804 354.5,-810 348.5,-816 342.5,-816 342.5,-816 59.5,-816 59.5,-816 53.5,-816 47.5,-810 47.5,-804 47.5,-804 47.5,-702 47.5,-702 47.5,-696 53.5,-690 59.5,-690"/>
<text text-anchor="middle" x="201" y="-803.2" font-family="Times,serif" font-size="11.00" fill="gray">Data</text>
</g>
<g id="clust5" class="cluster"><title>cluster_\PrivateBin\Model</title>
<path fill="none" stroke="gray" d="M56.5,-556C56.5,-556 332.5,-556 332.5,-556 338.5,-556 344.5,-562 344.5,-568 344.5,-568 344.5,-670 344.5,-670 344.5,-676 338.5,-682 332.5,-682 332.5,-682 56.5,-682 56.5,-682 50.5,-682 44.5,-676 44.5,-670 44.5,-670 44.5,-568 44.5,-568 44.5,-562 50.5,-556 56.5,-556"/>
<text text-anchor="middle" x="194.5" y="-669.2" font-family="Times,serif" font-size="11.00" fill="gray">Model</text>
</g>
<!-- \\PrivateBin\\Persistence\\TrafficLimiter -->
<g id="node1" class="node"><title>\\PrivateBin\\Persistence\\TrafficLimiter</title>
<polygon fill="none" stroke="black" points="360,-1030 249,-1030 249,-994 360,-994 360,-1030"/>
<text text-anchor="middle" x="304.5" y="-1009.2" font-family="Courier,monospace" font-size="11.00">TrafficLimiter</text>
</g>
<!-- \\PrivateBin\\Persistence\\AbstractPersistence -->
<g id="node4" class="node"><title>\\PrivateBin\\Persistence\\AbstractPersistence</title>
<polygon fill="none" stroke="black" points="177,-949 32,-949 32,-913 177,-913 177,-949"/>
<text text-anchor="start" x="70.5" y="-934.2" font-family="Courier,monospace" font-size="11.00">«abstract»</text>
<text text-anchor="start" x="40" y="-922.2" font-family="Courier,monospace" font-size="11.00">AbstractPersistence</text>
</g>
<!-- \\PrivateBin\\Persistence\\TrafficLimiter&#45;&gt;\\PrivateBin\\Persistence\\AbstractPersistence -->
<g id="edge1" class="edge"><title>\\PrivateBin\\Persistence\\TrafficLimiter&#45;&gt;\\PrivateBin\\Persistence\\AbstractPersistence</title>
<path fill="none" stroke="black" d="M259.065,-993.822C229.513,-981.733 190.528,-965.784 159.233,-952.982"/>
<polygon fill="none" stroke="black" points="160.367,-949.664 149.787,-949.117 157.717,-956.143 160.367,-949.664"/>
</g>
<!-- \\PrivateBin\\Persistence\\PurgeLimiter -->
<g id="node2" class="node"><title>\\PrivateBin\\Persistence\\PurgeLimiter</title>
<polygon fill="none" stroke="black" points="353.5,-976 255.5,-976 255.5,-940 353.5,-940 353.5,-976"/>
<text text-anchor="middle" x="304.5" y="-955.2" font-family="Courier,monospace" font-size="11.00">PurgeLimiter</text>
</g>
<!-- \\PrivateBin\\Persistence\\PurgeLimiter&#45;&gt;\\PrivateBin\\Persistence\\AbstractPersistence -->
<g id="edge2" class="edge"><title>\\PrivateBin\\Persistence\\PurgeLimiter&#45;&gt;\\PrivateBin\\Persistence\\AbstractPersistence</title>
<path fill="none" stroke="black" d="M255.317,-951.43C234.876,-948.642 210.469,-945.314 187.349,-942.161"/>
<polygon fill="none" stroke="black" points="187.568,-938.659 177.186,-940.775 186.622,-945.595 187.568,-938.659"/>
</g>
<!-- \\PrivateBin\\Persistence\\DataStore -->
<g id="node3" class="node"><title>\\PrivateBin\\Persistence\\DataStore</title>
<polygon fill="none" stroke="black" points="343,-922 266,-922 266,-886 343,-886 343,-922"/>
<text text-anchor="middle" x="304.5" y="-901.2" font-family="Courier,monospace" font-size="11.00">DataStore</text>
</g>
<!-- \\PrivateBin\\Persistence\\DataStore&#45;&gt;\\PrivateBin\\Persistence\\AbstractPersistence -->
<g id="edge4" class="edge"><title>\\PrivateBin\\Persistence\\DataStore&#45;&gt;\\PrivateBin\\Persistence\\AbstractPersistence</title>
<path fill="none" stroke="black" d="M265.792,-909.142C243.507,-912.181 214.392,-916.151 187.098,-919.873"/>
<polygon fill="none" stroke="black" points="186.576,-916.412 177.141,-921.231 187.522,-923.347 186.576,-916.412"/>
</g>
<!-- \\PrivateBin\\Persistence\\ServerSalt -->
<g id="node5" class="node"><title>\\PrivateBin\\Persistence\\ServerSalt</title>
<polygon fill="none" stroke="black" points="346.5,-868 262.5,-868 262.5,-832 346.5,-832 346.5,-868"/>
<text text-anchor="middle" x="304.5" y="-847.2" font-family="Courier,monospace" font-size="11.00">ServerSalt</text>
</g>
<!-- \\PrivateBin\\Persistence\\ServerSalt&#45;&gt;\\PrivateBin\\Persistence\\AbstractPersistence -->
<g id="edge7" class="edge"><title>\\PrivateBin\\Persistence\\ServerSalt&#45;&gt;\\PrivateBin\\Persistence\\AbstractPersistence</title>
<path fill="none" stroke="black" d="M262.474,-866.783C232.473,-879.056 191.506,-895.816 158.945,-909.136"/>
<polygon fill="none" stroke="black" points="157.498,-905.947 149.567,-912.972 160.148,-912.425 157.498,-905.947"/>
</g>
<!-- \\PrivateBin\\Data\\AbstractData -->
<g id="node6" class="node"><title>\\PrivateBin\\Data\\AbstractData</title>
<polygon fill="none" stroke="black" points="153.5,-761 55.5,-761 55.5,-725 153.5,-725 153.5,-761"/>
<text text-anchor="start" x="70.5" y="-746.2" font-family="Courier,monospace" font-size="11.00">«abstract»</text>
<text text-anchor="start" x="63.5" y="-734.2" font-family="Courier,monospace" font-size="11.00">AbstractData</text>
</g>
<!-- \\PrivateBin\\Data\\Filesystem -->
<g id="node7" class="node"><title>\\PrivateBin\\Data\\Filesystem</title>
<polygon fill="none" stroke="black" points="346.5,-788 262.5,-788 262.5,-752 346.5,-752 346.5,-788"/>
<text text-anchor="middle" x="304.5" y="-767.2" font-family="Courier,monospace" font-size="11.00">Filesystem</text>
</g>
<!-- \\PrivateBin\\Data\\Filesystem&#45;&gt;\\PrivateBin\\Data\\AbstractData -->
<g id="edge3" class="edge"><title>\\PrivateBin\\Data\\Filesystem&#45;&gt;\\PrivateBin\\Data\\AbstractData</title>
<path fill="none" stroke="black" d="M262.474,-764.406C233.958,-760.517 195.532,-755.277 163.837,-750.955"/>
<polygon fill="none" stroke="black" points="164.185,-747.47 153.804,-749.587 163.239,-754.406 164.185,-747.47"/>
</g>
<!-- \\PrivateBin\\Data\\Database -->
<g id="node8" class="node"><title>\\PrivateBin\\Data\\Database</title>
<polygon fill="none" stroke="black" points="340,-734 269,-734 269,-698 340,-698 340,-734"/>
<text text-anchor="middle" x="304.5" y="-713.2" font-family="Courier,monospace" font-size="11.00">Database</text>
</g>
<!-- \\PrivateBin\\Data\\Database&#45;&gt;\\PrivateBin\\Data\\AbstractData -->
<g id="edge6" class="edge"><title>\\PrivateBin\\Data\\Database&#45;&gt;\\PrivateBin\\Data\\AbstractData</title>
<path fill="none" stroke="black" d="M268.557,-720.765C239.682,-724.702 198.065,-730.377 164.104,-735.009"/>
<polygon fill="none" stroke="black" points="163.268,-731.59 153.832,-736.409 164.214,-738.526 163.268,-731.59"/>
</g>
<!-- \\PrivateBin\\Model\\Paste -->
<g id="node9" class="node"><title>\\PrivateBin\\Model\\Paste</title>
<polygon fill="none" stroke="black" points="331.5,-654 277.5,-654 277.5,-618 331.5,-618 331.5,-654"/>
<text text-anchor="middle" x="304.5" y="-633.2" font-family="Courier,monospace" font-size="11.00">Paste</text>
</g>
<!-- \\PrivateBin\\Model\\AbstractModel -->
<g id="node10" class="node"><title>\\PrivateBin\\Model\\AbstractModel</title>
<polygon fill="none" stroke="black" points="156.5,-627 52.5,-627 52.5,-591 156.5,-591 156.5,-627"/>
<text text-anchor="start" x="70.5" y="-612.2" font-family="Courier,monospace" font-size="11.00">«abstract»</text>
<text text-anchor="start" x="60.5" y="-600.2" font-family="Courier,monospace" font-size="11.00">AbstractModel</text>
</g>
<!-- \\PrivateBin\\Model\\Paste&#45;&gt;\\PrivateBin\\Model\\AbstractModel -->
<g id="edge5" class="edge"><title>\\PrivateBin\\Model\\Paste&#45;&gt;\\PrivateBin\\Model\\AbstractModel</title>
<path fill="none" stroke="black" d="M277.207,-632.415C249.226,-628.599 203.975,-622.428 166.95,-617.38"/>
<polygon fill="none" stroke="black" points="167.128,-613.871 156.746,-615.988 166.182,-620.807 167.128,-613.871"/>
</g>
<!-- \\PrivateBin\\Model\\Comment -->
<g id="node11" class="node"><title>\\PrivateBin\\Model\\Comment</title>
<polygon fill="none" stroke="black" points="336.5,-600 272.5,-600 272.5,-564 336.5,-564 336.5,-600"/>
<text text-anchor="middle" x="304.5" y="-579.2" font-family="Courier,monospace" font-size="11.00">Comment</text>
</g>
<!-- \\PrivateBin\\Model\\Comment&#45;&gt;\\PrivateBin\\Model\\AbstractModel -->
<g id="edge8" class="edge"><title>\\PrivateBin\\Model\\Comment&#45;&gt;\\PrivateBin\\Model\\AbstractModel</title>
<path fill="none" stroke="black" d="M272.126,-586.278C243.94,-590.122 201.745,-595.876 166.869,-600.631"/>
<polygon fill="none" stroke="black" points="166.211,-597.189 156.776,-602.008 167.157,-604.125 166.211,-597.189"/>
</g>
<!-- \\PrivateBin\\Json -->
<g id="node12" class="node"><title>\\PrivateBin\\Json</title>
<polygon fill="none" stroke="black" points="331.5,-546 277.5,-546 277.5,-510 331.5,-510 331.5,-546"/>
<text text-anchor="middle" x="304.5" y="-525.2" font-family="Courier,monospace" font-size="11.00">Json</text>
</g>
<!-- \\PrivateBin\\Configuration -->
<g id="node13" class="node"><title>\\PrivateBin\\Configuration</title>
<polygon fill="none" stroke="black" points="356.5,-492 252.5,-492 252.5,-456 356.5,-456 356.5,-492"/>
<text text-anchor="middle" x="304.5" y="-471.2" font-family="Courier,monospace" font-size="11.00">Configuration</text>
</g>
<!-- \\PrivateBin\\Request -->
<g id="node14" class="node"><title>\\PrivateBin\\Request</title>
<polygon fill="none" stroke="black" points="336.5,-438 272.5,-438 272.5,-402 336.5,-402 336.5,-438"/>
<text text-anchor="middle" x="304.5" y="-417.2" font-family="Courier,monospace" font-size="11.00">Request</text>
</g>
<!-- \\PrivateBin\\PrivateBin -->
<g id="node15" class="node"><title>\\PrivateBin\\PrivateBin</title>
<polygon fill="none" stroke="black" points="346.5,-384 262.5,-384 262.5,-348 346.5,-348 346.5,-384"/>
<text text-anchor="middle" x="304.5" y="-363.2" font-family="Courier,monospace" font-size="11.00">PrivateBin</text>
</g>
<!-- \\PrivateBin\\View -->
<g id="node16" class="node"><title>\\PrivateBin\\View</title>
<polygon fill="none" stroke="black" points="331.5,-330 277.5,-330 277.5,-294 331.5,-294 331.5,-330"/>
<text text-anchor="middle" x="304.5" y="-309.2" font-family="Courier,monospace" font-size="11.00">View</text>
</g>
<!-- \\PrivateBin\\Vizhash16x16 -->
<g id="node17" class="node"><title>\\PrivateBin\\Vizhash16x16</title>
<polygon fill="none" stroke="black" points="353.5,-276 255.5,-276 255.5,-240 353.5,-240 353.5,-276"/>
<text text-anchor="middle" x="304.5" y="-255.2" font-family="Courier,monospace" font-size="11.00">Vizhash16x16</text>
</g>
<!-- \\PrivateBin\\Filter -->
<g id="node18" class="node"><title>\\PrivateBin\\Filter</title>
<polygon fill="none" stroke="black" points="333,-222 276,-222 276,-186 333,-186 333,-222"/>
<text text-anchor="middle" x="304.5" y="-201.2" font-family="Courier,monospace" font-size="11.00">Filter</text>
</g>
<!-- \\PrivateBin\\Model -->
<g id="node19" class="node"><title>\\PrivateBin\\Model</title>
<polygon fill="none" stroke="black" points="331.5,-168 277.5,-168 277.5,-132 331.5,-132 331.5,-168"/>
<text text-anchor="middle" x="304.5" y="-147.2" font-family="Courier,monospace" font-size="11.00">Model</text>
</g>
<!-- \\PrivateBin\\I18n -->
<g id="node20" class="node"><title>\\PrivateBin\\I18n</title>
<polygon fill="none" stroke="black" points="331.5,-114 277.5,-114 277.5,-78 331.5,-78 331.5,-114"/>
<text text-anchor="middle" x="304.5" y="-93.2" font-family="Courier,monospace" font-size="11.00">I18n</text>
</g>
<!-- \\PrivateBin\\Sjcl -->
<g id="node21" class="node"><title>\\PrivateBin\\Sjcl</title>
<polygon fill="none" stroke="black" points="331.5,-60 277.5,-60 277.5,-24 331.5,-24 331.5,-60"/>
<text text-anchor="middle" x="304.5" y="-39.2" font-family="Courier,monospace" font-size="11.00">Sjcl</text>
</g>
</g>
</svg>
