<svg xmlns="http://www.w3.org/2000/svg" xmlns:xlink="http://www.w3.org/1999/xlink"><symbol class="bi bi-file-earmark" viewBox="0 0 16 16" id="file-earmark"><path d="M14 4.5V14a2 2 0 0 1-2 2H4a2 2 0 0 1-2-2V2a2 2 0 0 1 2-2h5.5zm-3 0A1.5 1.5 0 0 1 9.5 3V1H4a1 1 0 0 0-1 1v12a1 1 0 0 0 1 1h8a1 1 0 0 0 1-1V4.5z"/></symbol><symbol class="bi bi-arrow-up" viewBox="0 0 16 16" id="arrow-up"><path fill-rule="evenodd" d="M8 15a.5.5 0 0 0 .5-.5V2.707l3.146 3.147a.5.5 0 0 0 .708-.708l-4-4a.5.5 0 0 0-.708 0l-4 4a.5.5 0 1 0 .708.708L7.5 2.707V14.5a.5.5 0 0 0 .5.5"/></symbol><symbol class="bi bi-box-arrow-up-right" viewBox="0 0 16 16" id="box-arrow-up-right"><path fill-rule="evenodd" d="M8.636 3.5a.5.5 0 0 0-.5-.5H1.5A1.5 1.5 0 0 0 0 4.5v10A1.5 1.5 0 0 0 1.5 16h10a1.5 1.5 0 0 0 1.5-1.5V7.864a.5.5 0 0 0-1 0V14.5a.5.5 0 0 1-.5.5h-10a.5.5 0 0 1-.5-.5v-10a.5.5 0 0 1 .5-.5h6.636a.5.5 0 0 0 .5-.5"/><path fill-rule="evenodd" d="M16 .5a.5.5 0 0 0-.5-.5h-5a.5.5 0 0 0 0 1h3.793L6.146 9.146a.5.5 0 1 0 .708.708L15 1.707V5.5a.5.5 0 0 0 1 0z"/></symbol><symbol class="bi bi-tags" viewBox="0 0 16 16" id="tags"><path d="M3 2v4.586l7 7L14.586 9l-7-7zM2 2a1 1 0 0 1 1-1h4.586a1 1 0 0 1 .707.293l7 7a1 1 0 0 1 0 1.414l-4.586 4.586a1 1 0 0 1-1.414 0l-7-7A1 1 0 0 1 2 6.586z"/><path d="M5.5 5a.5.5 0 1 1 0-1 .5.5 0 0 1 0 1m0 1a1.5 1.5 0 1 0 0-3 1.5 1.5 0 0 0 0 3M1 7.086a1 1 0 0 0 .293.707L8.75 15.25l-.043.043a1 1 0 0 1-1.414 0l-7-7A1 1 0 0 1 0 7.586V3a1 1 0 0 1 1-1z"/></symbol><symbol class="bi bi-folder2-open" viewBox="0 0 16 16" id="folder2-open"><path d="M1 3.5A1.5 1.5 0 0 1 2.5 2h2.764c.958 0 1.76.56 2.311 1.184C7.985 3.648 8.48 4 9 4h4.5A1.5 1.5 0 0 1 15 5.5v.64c.57.265.94.876.856 1.546l-.64 5.124A2.5 2.5 0 0 1 12.733 15H3.266a2.5 2.5 0 0 1-2.481-2.19l-.64-5.124A1.5 1.5 0 0 1 1 6.14zM2 6h12v-.5a.5.5 0 0 0-.5-.5H9c-.964 0-1.71-.629-2.174-1.154C6.374 3.334 5.82 3 5.264 3H2.5a.5.5 0 0 0-.5.5zm-.367 1a.5.5 0 0 0-.496.562l.64 5.124A1.5 1.5 0 0 0 3.266 14h9.468a1.5 1.5 0 0 0 1.489-1.314l.64-5.124A.5.5 0 0 0 14.367 7z"/></symbol><symbol class="bi bi-house" viewBox="0 0 16 16" id="house"><path d="M8.707 1.5a1 1 0 0 0-1.414 0L.646 8.146a.5.5 0 0 0 .708.708L2 8.207V13.5A1.5 1.5 0 0 0 3.5 15h9a1.5 1.5 0 0 0 1.5-1.5V8.207l.646.647a.5.5 0 0 0 .708-.708L13 5.793V2.5a.5.5 0 0 0-.5-.5h-1a.5.5 0 0 0-.5.5v1.293zM13 7.207V13.5a.5.5 0 0 1-.5.5h-9a.5.5 0 0 1-.5-.5V7.207l5-5z"/></symbol><symbol class="bi bi-calendar" viewBox="0 0 16 16" id="calendar"><path d="M3.5 0a.5.5 0 0 1 .5.5V1h8V.5a.5.5 0 0 1 1 0V1h1a2 2 0 0 1 2 2v11a2 2 0 0 1-2 2H2a2 2 0 0 1-2-2V3a2 2 0 0 1 2-2h1V.5a.5.5 0 0 1 .5-.5M1 4v10a1 1 0 0 0 1 1h12a1 1 0 0 0 1-1V4z"/></symbol><symbol class="bi bi-person-fill" viewBox="0 0 16 16" id="person-fill"><path d="M3 14s-1 0-1-1 1-4 6-4 6 3 6 4-1 1-1 1zm5-6a3 3 0 1 0 0-6 3 3 0 0 0 0 6"/></symbol></svg>
